<svg id="Layer_1" data-name="Layer 1" xmlns="http://www.w3.org/2000/svg" viewBox="0 0 414.53 353.53"><defs><style>.cls-1{fill:#f7941c;}</style></defs><path class="cls-1" d="M91.71,353.53c-44.57,0-76.36-34.26-87.53-94.69C-11.69,173,17.72,28,90.87,3.66,140-12.67,188,25.74,233.55,117.85a21.27,21.27,0,1,1-38.12,18.86C162.71,70.58,128.67,35.93,104.3,44,62.64,57.88,31,170.13,46,251.11c5.18,28,17.76,61.32,47.76,59.84,49.87-2.22,79.56-42.67,111-85.51,29.29-39.91,59.58-81.18,108.71-94.62,41.79-11.42,76.3,1,92.31,33.37,18.6,37.57,6.37,94.08-25.67,118.56-26,19.9-59.42,15.95-89.29-10.55a21.27,21.27,0,1,1,28.23-31.82c21.49,19.07,31.83,11.17,35.24,8.57,16.22-12.39,23.09-46.26,13.37-65.89-2.48-5-10-20.22-43-11.21-34.83,9.52-59.51,43.15-85.64,78.76-34.29,46.74-73.17,99.71-143.39,102.83C94.33,353.5,93,353.53,91.71,353.53Z"/></svg>